# xmcd
#
# Track frame offsets:
#	150
#	452
#	14180
#	27830
#	41330
#	53045
#
# Disc length: 725 seconds
#
# Revision: 1
# Processed by: cddbd v1.5.1PL0 Copyright (c) Steve Scherf et al.
# Submitted via: CDex 1.50Beta5
#
DISCID=3e02d306
DTITLE=Dreams Come True - わすれものばんちょう
DYEAR=1900
DGENRE=Pop
TTITLE0=「こんにちは」
TTITLE1=わすれものばんちょう
TTITLE2=おどれ！わすれものばんちょう（ディスコ・ヴァージョン）
TTITLE3=うたえ！わすれものばんちょう（カラオケ・ヴァージョン）
TTITLE4=「ありがと」
TTITLE5=データ トラック
EXTD=
EXTT0=
EXTT1=
EXTT2=
EXTT3=
EXTT4=
EXTT5=
PLAYORDER=
